<?xml version="1.0" encoding="utf-8"?>
<!-- Generator: Adobe Illustrator 23.0.3, SVG Export Plug-In . SVG Version: 6.00 Build 0)  -->
<svg version="1.1" id="Layer_1" shape-rendering="geometricPrecision"
	 xmlns="http://www.w3.org/2000/svg" xmlns:xlink="http://www.w3.org/1999/xlink" x="0px" y="0px" viewBox="0 0 128 25"
	 style="enable-background:new 0 0 128 25;" xml:space="preserve">
<style type="text/css">
	.st0{fill:#FFFFFF;}
</style>
<g>
	<path class="st0" d="M124.3,5.5c-1,0-1.7-0.8-1.7-1.7s0.8-1.7,1.7-1.7s1.7,0.8,1.7,1.7S125.2,5.5,124.3,5.5z M124.3,2.3
		c-0.8,0-1.5,0.7-1.5,1.5s0.7,1.5,1.5,1.5s1.5-0.7,1.5-1.5S125,2.3,124.3,2.3z M124.5,3.8c0.1,0,0.1,0.1,0.2,0.2
		c0.1,0.1,0.1,0.2,0.2,0.3l0.2,0.4h-0.4l-0.3-0.4c-0.1-0.1-0.2-0.2-0.2-0.3l-0.1-0.1c0,0-0.1,0-0.2,0h-0.1v0.8h-0.4V2.9h0.8h0.4
		c0.1,0,0.2,0.1,0.2,0.2c0.1,0.1,0.1,0.2,0.1,0.3s0,0.2-0.1,0.3C124.7,3.7,124.6,3.8,124.5,3.8z M124.5,3.3
		c-0.1-0.1-0.2-0.1-0.4-0.1h-0.3v0.5h0.3h0.3c0,0,0.1,0,0.1-0.1V3.5C124.6,3.4,124.5,3.3,124.5,3.3z"/>
	<path class="st0" d="M10.7,16.4H8.1v6.2H2V2h8.8c5.3,0,8.6,2.3,8.6,7.1S15.9,16.4,10.7,16.4z M10.5,6.5H8V12h2.4
		c2,0,3.1-0.9,3.1-2.8S12.5,6.5,10.5,6.5z"/>
	<path class="st0" d="M52.7,22.5l-6.8-10.8v10.8h-5.6V2h6l6.1,9.9V2H58v20.5H52.7z"/>
	<path class="st0" d="M81.8,22.5V2h13.6v4.7h-7.6v2.8h6.5v4.9h-6.5v3.4h7.8v4.7H81.8z"/>
	<path class="st0" d="M98.2,22.5V2h6.1v15.4h6.7v5.2L98.2,22.5z"/>
	<path class="st0" d="M113.2,22.5V2h6.1v15.4h6.7v5.2L113.2,22.5z"/>
	<path class="st0" d="M68.8,22.5c6.9,0,10.7-4.2,10.7-10.3C79.6,6.1,75.8,2,68.7,2h-7.6v18.2v2.4h2.4L68.8,22.5z M68.5,18h-1.9V6.6
		h1.9c3,0,5,1.7,5,5.7S71.6,18,68.5,18z"/>
	<path class="st0" d="M31.6,2h-6.8l-7.1,20.5h5.9l1-3.4l1.4-4.6L28,8l1.8,6.5h-1.6l-1.1,4.6h4.1l1.2,3.4h6.2L31.6,2z"/>
</g>
</svg>
